<?xml version="1.0" encoding="UTF-8"?><svg xmlns="http://www.w3.org/2000/svg" xmlns:xlink="http://www.w3.org/1999/xlink" height="364.8" preserveAspectRatio="xMidYMid meet" version="1.0" viewBox="30.7 105.8 514.8 364.8" width="514.8" zoomAndPan="magnify"><g id="change1_1"><path d="M257.4,105.8c2.2,1.7,2.7,4,3.2,6.1c3.1,11.7,6.2,23.4,8.9,35.2c3,13.1,5.8,26.3,8,39.5c3.5,20.8,6.6,41.6,9.5,62.5 c1.4,9.8,1.8,19.6,2.8,29.4c0.6,6.2,1,12.6,2.4,18.7c4.2,17.6,5.2,35.5,5.3,53.4c0,2.7-0.2,5.5,0.4,8c1.8,7.5,1.8,15.2,1.8,22.8 c0,15.3,0.9,30.5,1.7,45.7c0.3,5.8,0,11.6-0.1,17.5c0,0.8-0.5,1.7-0.8,2.5c-0.6,1.5-2,1.6-3.3,1.7c-1.3,0.1-2.8-1-2.9-2.1 c-0.2-1.3-0.5-2.7-0.4-4c0.3-14.9-2.3-29.6-6.1-43.8c-5.1-18.7-7.6-37.8-10.1-56.9c-1.7-12.9-2.4-25.9-4.6-38.7 c-1-5.7-0.7-11.6-1.1-17.4c-2.1-28.6-5.2-57.1-8.8-85.6c-0.6-4.9-0.5-9.8-0.8-14.7c-0.3-5.8-0.6-11.6-1.1-17.4 c-0.5-6.7-1.1-13.4-1.9-20.1c-0.5-4-1.6-7.9-2.2-11.9c-1.5-8.9-2.9-17.7-1.4-26.7C256.1,108.1,256.9,107,257.4,105.8z" fill="inherit"/><path d="M410.1,163.5c-0.2,3.2-0.4,6.8-0.5,10.4c-0.3,9.4-1.4,18.7-1.5,28.2c-0.2,16.2-3.6,32-7.1,47.8c-3,13.6-7,26.9-9.7,40.5 c-0.4,2.2-1.2,4.3-2,6.4c-2.8,7.6-5.2,15.2-6.6,23.2c-1,5.7-3.4,11.1-5.2,16.6c-1.9,6-3.8,11.9-5.8,17.9c-2.6,8.1-5.1,16.2-8,24.3 c-5,13.9-10.1,27.8-15.5,41.5c-2.6,6.7-5.8,13.1-8.8,19.6c-0.1,0.3-0.9,0.6-1.1,0.5c-0.6-0.4-1.6-1-1.6-1.4c0.2-3.1,0.5-6.3,1-9.3 c0.3-2.2,1.5-4.4,1.5-6.5c0-7.8,2.6-15,4.7-22.3c1.8-6.5,3.6-12.9,4.4-19.6c0.4-3.5,0.9-7.2,2.2-10.5c4.4-10.9,5.5-22.6,8.4-33.9 c2.8-10.8,5.4-21.7,8.1-32.6c1.6-6.5,3.2-13.1,4.5-19.7c1.3-6.6,2.4-13.2,3.5-19.9c1-6.2,1.9-12.4,2.8-18.6 c2.5-17.3,6.7-34.2,11.1-51.1c4.2-16,9.8-31.6,14.8-47.4c0.9-2.9,0.4-6.4,2.9-8.7c0.3-0.3,0.8-0.3,1.2-0.3c0.4,0,1,0.3,1,0.4 c0.4,4.9,0.9,9.8,1.1,14.7C410.2,156.9,410.1,160,410.1,163.5z" fill="inherit"/><path d="M352.7,253.5c-0.4,3.2-1.3,9.4-1.9,15.6c-0.6,5.8-0.9,11.6-1.4,17.4c-0.4,4.5-1.1,8.9-1.1,13.4c0,14.4-2.4,28.5-3.9,42.8 c-0.9,8.9-3,17.6-4.4,26.5c-2.9,18.5-6.7,36.9-9.1,55.6c-0.1,0.8-0.5,1.8-1.1,2.4c-0.5,0.6-1.4,1-2.1,1.4c-0.1,0-0.7-0.5-0.7-0.8 c-0.3-1.3-0.8-2.6-0.7-3.9c0.6-19.7-1.2-39.4-1-59.1c0.1-14.3-0.6-28.6-1.2-42.9c-0.2-6.3,0.3-12.5,0.9-18.8 c1.6-16.9,3.6-33.8,5-50.8c1.1-13.4,3.3-26.7,5.5-39.9c2.7-16.3,6.7-32.4,11.7-48.2c2.8-8.9,4.5-18.2,6.7-27.4 c0.1-0.5,1-0.9,1.7-1.2c0.1-0.1,0.8,0.5,0.8,0.9c0.5,3.1,1.4,6.1,1.4,9.2c0.1,10.7,0.4,21.5-0.9,32.2c-0.5,4-0.4,8-0.6,12.1 c-0.7,18.3-1.3,36.7-3.1,55C353,246.8,353,248.6,352.7,253.5z" fill="inherit"/><path d="M197,114.1c2.7,4.7,3.8,10,5.3,15.2c1.1,3.9,1.8,7.9,3.3,11.6c8.6,21.8,13,44.7,18.2,67.3c4.1,17.4,7.6,35,12.7,52.2 c2.8,9.4,5.2,19,8.3,28.3c1.7,5.1,2.6,10.4,4,15.6c2.5,9.1,5.1,18.1,7.5,27.2c2.6,9.5,5.4,18.9,8.2,28.4c2.8,9.4,5.2,19,8.2,28.4 c2.6,8.1,4.2,16.5,6,24.8c2.1,10.1,4,20.2,5.8,30.3c0.5,2.6,0.1,5.3,0,8c0,1.3-2.2,2.9-4.1,2.9c-1.2-0.1-2.7-0.4-3.6-1.1 c-1-0.8-1.5-2.2-2-3.4c-2.3-6.8-4.8-13.5-6.8-20.4c-6.5-22.8-12.7-45.8-19.4-68.5c-4.2-14.2-7.6-28.5-10.3-43.1 c-1-5.3-2.1-10.6-3.5-15.7c-5.2-19-7.8-38.7-13.4-57.6c-4.1-13.7-6.7-27.8-10.7-41.6c-3.6-12.4-6.3-25.2-8.3-38 c-0.9-6.2-2.2-12.3-3.6-18.5c-2.3-10.6-2.2-21.3-1.4-32.1L197,114.1z" fill="inherit"/><path d="M298.3,131.3c0.8,3.2,1.3,4.4,1.5,5.7c3.4,21.2,6.3,42.5,6.9,64.1c0.2,7.6,1.2,15.2,1.8,22.8c0.8,9.8,1.3,19.7,2.2,29.5 c1.4,14.7,1.3,29.5,3.9,44.1c0.3,1.8,0.7,3.5,0.8,5.3c0.8,22.8,3.6,45.6,2.5,68.5c-0.1,2.7-0.2,5.4-0.1,8.1 c0.3,18.4,0.6,36.7,1,55.1c0.1,3.2,0.2,6.3-1,9.3c-0.5,1.3-2.3,2.4-4.3,2.5c-1,0-3-1.2-3.1-2c-0.8-8-2-16-2.3-24 c-0.5-12.5-0.4-25.1-0.7-37.6c-0.2-9.8,0.2-19.7-1.8-29.5c-0.8-3.9-1-8-1-12.1c0.1-13.9-1.8-27.6-3.1-41.4 c-0.9-9.4-1.3-18.8-1.7-28.2c-0.4-9-0.2-17.9-0.8-26.9c-0.5-7.6-1.2-15.2-2.6-22.7c-2.1-11.1-2.5-22.3-2.8-33.5 c-0.3-14.8-0.4-29.6,0.7-44.3C294.7,139.9,295.2,136,298.3,131.3z" fill="inherit"/><path d="M251.4,416.7c-0.7-0.5-1.7-0.7-2.1-1.4c-7.4-13.8-14.8-27.6-22-41.5c-6.8-13.1-13.1-26.5-20-39.5 c-6.6-12.3-11.2-25.4-15.1-38.7c-2.8-9.4-5.6-18.9-9.3-28c-1.9-4.5-3.2-9.3-4.9-13.9c-3.6-9.7-7.2-19.3-10.9-28.9 c-4.1-10.9-6.7-22.3-9.6-33.5c-3.8-14.3-8.3-28.4-12.3-42.6c-2.2-7.7-4-15.6-6-23.4c-0.1-0.3,0.4-1.1,0.5-1.1c0.8,0,1.8,0,2.2,0.4 c0.9,1,1.6,2.2,2.1,3.4c8.6,20.2,18.5,39.8,26.3,60.3c6.1,15.9,11.6,31.9,16.4,48.3c4,13.7,7.5,27.6,11.6,41.4 c3.7,12.4,8.4,24.6,13.4,36.5c4.2,9.9,8.6,19.7,12.3,29.8c5.4,14.7,11.7,29.1,17.9,43.4c3.4,7.8,6.1,15.9,8.6,24 c0.5,1.7,0.4,3.5,0.6,5.3L251.4,416.7z" fill="inherit"/><path d="M37.3,173c0.4,1.2,0.5,2.6,1.2,3.7c5.1,7.9,10.3,15.8,15.5,23.6c2,3,3.8,6.1,6.1,8.8c8.7,10.2,16.4,21.3,26.2,30.7 c7.5,7.2,13.4,15.6,19.4,24c7.5,10.6,14.6,21.4,22.8,31.6c4.5,5.6,8,11.9,12.1,17.7c3.6,5.1,7.2,10.3,11.1,15.2 c4.7,6,9.6,11.9,13.1,18.7c4.5,8.9,11.1,16.3,17.1,24c4.7,6,9.5,11.9,13.4,18.4c2.5,4.2,5.8,8,8.7,12c4.5,6.2,8.9,12.4,13.3,18.6 c1.1,1.5,1.7,3.1,1.2,5l0.2-0.3c-0.8-0.1-1.9,0.2-2.5-0.3c-1.4-1.1-2.7-2.4-3.8-3.7c-18.3-22.2-37.7-43.3-56.8-64.8 c-8.9-10.1-17-20.8-25.4-31.3c-4.2-5.3-8.1-10.7-12.2-16.1c-2.2-2.9-4.6-5.6-6.5-8.6c-7.6-12.2-16-23.8-23-36.4 c-4.5-8.2-9.6-16.2-15.1-23.8c-8.9-12.4-17.6-24.9-24.7-38.5c-3.7-7.1-7.9-14.1-12-21c-1.7-2.8-0.3-5.1,0.5-7.6L37.3,173z" fill="inherit"/><path d="M363.4,418.3c-1.8-2.3-2.6-4.8-1.3-7.5c2.7-6.1,5.3-12.4,8.6-18.2c5.5-9.7,9.9-20.1,16.7-29.1c0.8-1,1.3-2.4,1.8-3.6 c9.8-21.6,19.6-43.2,27.3-65.8c3.5-10.2,8.5-19.8,12.2-29.9c5.6-15.2,13-29.5,19-44.5c1.2-2.9,2.7-5.7,4.2-8.4 c4.1-7.5,7.7-15.2,10.9-23c1.4-3.3,2.8-6.6,4.6-9.7c1.3-2.3,3-4.5,5.8-5.3c0.3,0.8,0.9,1.7,0.8,2.3c-1.3,5.7-2.3,11.5-4.3,16.9 c-6.8,18.5-12,37.5-16.9,56.6c-2.9,11.4-7.2,22.1-12.1,32.7c-8.4,18.4-18.6,35.8-28.6,53.3c-1.1,1.9-2.5,3.7-3.5,5.8 c-5.4,11.4-12.6,21.7-19,32.4c-3,5-5.9,10-8.6,15.2c-4.5,8.8-9,17.5-15.6,25C364.2,414.7,364,416.7,363.4,418.3L363.4,418.3z" fill="inherit"/><path d="M239.1,423c-2.3,0.7-4.4,0.8-6-1.4c-2.2-2.9-4.5-5.6-6.5-8.6c-9.9-14.9-19.8-29.8-29.7-44.8c-1.5-2.2-3-4.5-4.1-7 c-5.7-12.7-13.2-24.4-20-36.5c-9.5-16.8-18.9-33.6-28.4-50.3c-1.8-3.1-3.6-6.2-4.5-9.7c-0.6-2.1-1.6-4.2-2.8-6.1 c-5.5-9.3-9.6-19.2-14.1-29c-3-6.5-6.1-13-9.2-19.4c-0.4-0.8-0.8-1.6-1.1-2.4c-7.4-18.3-14.8-36.5-22.2-54.8 c-0.4-1-0.4-1.8,0.6-2.3c0.3-0.1,0.9,0.2,1.2,0.4c0.7,0.5,1.4,1.1,2,1.8c2.2,2.8,4.4,5.6,6.4,8.6c2.5,3.7,4.9,7.5,7,11.5 c6.2,11.9,12.4,23.8,18.4,35.8c7,14,14.4,27.8,21.8,41.6c8.7,16.1,17.9,32.1,23.6,49.6c1.4,4.2,3.4,8.3,5.3,12.3 c4.7,9.6,9.2,19.4,13.9,29c5.5,11.2,10.8,22.6,18.1,32.9c10.1,14.2,19.2,29.1,26.6,45C236.3,420.9,237.2,422.5,239.1,423L239.1,423 z" fill="inherit"/><path d="M218.8,451.9c-2.8,0.9-5.3,0-7.7-1.2c-15.9-8.2-31.2-17.3-45.4-28.3c-16.6-12.9-33.4-25.5-50.1-38.3 c-10.3-7.9-20.5-15.9-30.6-24.1c-7.3-5.9-14.4-12.1-19.7-20c-0.2-0.3-0.4-0.9-0.3-1.3c0.3-1.1,1.1-1.4,2.1-0.8 c3.1,1.7,6.3,3.4,9.3,5.3c4.6,2.8,8.8,6.5,13.7,8.5c13.8,5.6,25.4,14.9,38.2,22.2c20.4,11.5,38,26.8,54.2,43.6 c3.1,3.2,5.8,6.8,8.9,9.9c6,6,12.6,11.3,19.5,16.3c2.5,1.8,4.8,4,7.1,6.1c0.5,0.5,0.4,1.6,0.6,2.4L218.8,451.9z" fill="inherit"/><path d="M545.4,308.9c-0.1,0.4,0.1,1-0.2,1.2c-9.4,9.6-19.2,18.7-30.3,26.5c-11,7.7-21.5,16.1-31.7,24.8c-5.8,4.9-12,9.4-18,14.1 c-5.6,4.5-11.2,9-16.8,13.5c-11.5,9.3-23.8,17.5-37.4,23.5c-6.1,2.7-12.2,5.6-18.3,8.3c-0.3,0.1-1-0.1-1.1-0.3 c-0.2-0.8-0.7-1.8-0.3-2.4c4.3-7,10.1-12.6,16.2-17.8c6.1-5.2,12.4-10.3,19.1-14.8c17.8-12.1,35.7-24,53-36.8 c18.8-13.9,39.3-24.9,58.6-37.9c1.8-1.2,4-1.9,6-2.7C544.6,308,545,308.6,545.4,308.9z" fill="inherit"/><path d="M400.2,382.9c0.8-0.3,1.8-0.5,2.4-1.1c1.3-1.2,2.6-2.5,3.7-3.9c7.3-9.6,14.6-19.2,21.9-28.8c10.3-13.6,19.1-28.1,27.8-42.7 c9.4-15.8,18.9-31.5,30.6-45.7c2-2.4,4.1-4.8,6.2-7.1c2.1-2.3,4.4-4.5,6.3-7c6.5-8.6,14.4-15.9,22.2-23.3c0.9-0.9,2.3-1.3,3.7-2 c0.1,1.6,0.8,3.1,0.3,4.1c-7.2,15.4-15.3,30.4-26.4,43.5c-8.4,9.9-16.8,19.8-24.9,29.9c-6.1,7.7-11.8,15.8-17.7,23.6 c-0.3,0.4-0.6,0.7-0.8,1.1c-4.8,10.2-11.8,18.9-18.6,27.8c-6.3,8.2-12.5,16.3-20.7,22.8c-3.1,2.5-5.9,5.4-8.8,8.3 C405,384.7,402.6,384.4,400.2,382.9L400.2,382.9z" fill="inherit"/><path d="M400.2,429.7c1.2-1.5,1.8-2.8,2.8-3.3c3.9-2.1,8-4,12-6c14.1-7,27.3-15.2,40-24.5c8.7-6.3,18.1-11.5,28.3-15.2 c12.6-4.6,25.1-9.5,37.7-13.9c6.7-2.3,13.8-3.8,20.7-5.6c1-0.3,2.3,0.3,3.4,0.5c-0.5,0.7-0.9,1.7-1.6,2.1 c-7.6,4.6-15.2,9.4-23,13.8c-11.7,6.6-23.5,13-35.3,19.3c-7.5,4-15,7.9-22.5,11.9c-0.8,0.4-1.6,0.8-2.4,1.1 c-18.1,6.5-36.1,13.1-54.2,19.5C404.5,430.2,402.6,429.7,400.2,429.7z" fill="inherit"/><path d="M388.9,444.6c8.8-3.5,17.3-6.4,25.9-8.7c2.6-0.7,5.2-1.3,7.6-2.4c12.6-5.9,26.1-9.4,38.9-14.7c1.6-0.7,3.4-1.2,5.1-1.5 c15.8-3.2,31.5-6.5,47.1-10.6c1.7-0.4,3.5-0.6,5.3-0.7c0.6,0,1.2,0.9,1.7,1.5c0.2,0.2,0,0.9-0.2,1.2c-0.6,0.7-1.2,1.4-1.9,1.9 c-15.6,11.6-32,21.3-51.4,25.2c-7.9,1.6-15.4,4.6-23.4,5.9c-7.1,1.1-14.2,2.1-21.3,2.7c-8.9,0.8-17.8,2.1-26.7,3.1 c-1.3,0.2-2.8,0.4-4,0C390.7,447.1,390,445.8,388.9,444.6z" fill="inherit"/><path d="M91.4,439.6c4-2.2,8.4-3.2,12.9-2.8c7.1,0.7,14.2,0.8,21.1,3.1c5,1.7,10.5,2.2,15.7,3.2c6.2,1.1,12.4,1.9,18.5,3.2 c13.1,2.9,26.1,6.1,39.1,9.2c0.9,0.2,1.7,0.4,2.6,0.8c7.9,3.2,15.7,6.3,23.5,9.7c1.3,0.6,1.1,2.2,0.4,3.5c-5.3,1.1-10.5,1-15.9-0.3 c-5.6-1.4-11.6-1-17-3.6c-5.2-2.5-11.2-2.7-16.7-4.6c-9.3-3.2-18.9-5.5-28.7-6.2c-9-0.6-17.6-3.2-26.3-4.7 c-8-1.4-15.6-3.8-23.4-5.9c-1.7-0.5-3.3-1.4-4.7-2.4C91.9,441.3,91.8,440.3,91.4,439.6z" fill="inherit"/><path d="M385.6,411.5c-0.3,1.2-0.2,2.8-0.9,3.6c-4.8,5.9-9.8,11.6-14.7,17.4c-2.9,3.5-6.6,5.9-10.6,8c-0.9,0.5-1.8,0.2-2.3-0.8 c-0.2-0.3-0.2-0.9,0-1.2c1.9-2.4,3.4-5.5,5.9-7.1c7.6-5,13.9-11,19.4-18.2c0.7-0.9,2.3-1,3.5-1.5L385.6,411.5z" fill="inherit"/><path d="M236.6,449.7c-1.1-1.7-2.4-3.4-3.4-5.2c-0.5-1-0.6-2.3-0.9-3.4l-0.2,0.3c4.5,2.2,4.8,2.8,4.1,8.5 C236.2,449.9,236.6,449.7,236.6,449.7z" fill="inherit"/><path d="M218.5,452.2c1.4-0.7,2.4,0,3.4,0.8c0.3,0.2,0.7,0.7,0.7,1c-0.1,0.9-0.8,1-1.8,0.5c-1.2-0.5-2.4-0.9-2-2.6L218.5,452.2z" fill="inherit"/><path d="M290.5,227.9c-0.3,0-0.8,0-0.8-0.1c-0.1-0.4-0.1-1.1,0-1.2C290.6,226.2,290.9,226.7,290.5,227.9z" fill="inherit"/><path d="M392,407.1c-1.4-1.6-0.8-3,0.6-4.3c0.3-0.3,0.7-0.4,1.1-0.5c0.9-0.1,1.1,0.6,0.4,1.6c-0.7,1-1.6,1.9-2.4,2.8L392,407.1z" fill="inherit"/><path d="M229.1,438.8c-1.3-1.1-2.5-2.4-3.9-3.4c-0.6-0.4-1.6-0.4-2.4-0.6l0,0c0.8-0.1,1.6-0.2,2.4-0.2c2.9,0.1,3.4,0.6,3.5,4.5 L229.1,438.8z" fill="inherit"/><path d="M356.8,418.6c-1.1,0-1.6,0.6-1.2,1.5c0.4,0.9,1.1,0.9,1.9,0.3c0.8-0.6,1-1.2,0.4-2C357.8,418.3,357.2,418.5,356.8,418.6 C356.9,418.6,356.8,418.6,356.8,418.6z" fill="inherit"/><path d="M240.7,431.7c-1.6-2.7-2.8-5.5-1.5-8.7l0,0c0.3,2.8,0.7,5.6,1,8.5L240.7,431.7z" fill="inherit"/><path d="M222.8,426.4c0,2.8,0,5.7,0,8.5l0,0c0.1-2.9-1.6-5.9,0.1-8.7L222.8,426.4z" fill="inherit"/><path d="M251,417c1-0.3,1.7,0,2.1,1c0.4,1,0,1.8-1,2c-0.2,0.1-0.8-0.5-0.8-0.9c-0.1-0.8,0-1.6,0-2.5L251,417z" fill="inherit"/><path d="M197.6,114.2c-0.3,0.2-0.5,0.3-0.8,0.5c0.8,0.4,0.9,0.2,0.2-0.6C197,114.1,197.6,114.2,197.6,114.2z" fill="inherit"/><path d="M31.7,173c0.1-0.3,0.3-0.7,0.3-0.8c-0.7-0.6-1.2-0.4-1.3,0.5c0,0.2,0.5,0.4,0.8,0.5C31.4,173.2,31.7,173,31.7,173z" fill="inherit"/><path d="M37.4,172.8c-1.9,1.3-3.7,1.1-5.7,0.1c-0.1,0-0.3,0.3-0.3,0.3c1.9-1,3.9-0.4,5.9-0.2C37.3,173,37.4,172.8,37.4,172.8z" fill="inherit"/><path d="M228.8,439.2c2.6-0.2,2.6-0.2,3.3,2.2l0.2-0.3c-1.9,0.4-2.6-0.9-3.2-2.3C229.1,438.8,228.8,439.2,228.8,439.2z" fill="inherit"/><path d="M182.3 442.8L181.8 443.1 182.1 442.5z" fill="inherit"/><path d="M240.6,453.2c-1.3-1.2-2.6-2.3-4-3.5c0,0-0.4,0.2-0.5,0.2c1.3,1,2.6,2.1,4,3.1L240.6,453.2z" fill="inherit"/><path d="M240.1,453c0.3-0.1,0.5-0.2,0.8-0.3c-0.7-0.6-0.9-0.4-0.3,0.5C240.6,453.2,240.1,453,240.1,453z" fill="inherit"/><path d="M224.1,382.7c0.2,0,0.4,0,0.7,0c-0.5-0.7-0.6-0.7-0.4,0.3C224.5,383.1,224.1,382.7,224.1,382.7z" fill="inherit"/><path d="M399.7,387.5c0.2-1.5,0.4-3,0.5-4.5c0,0-0.1-0.1-0.1-0.1c0.4,1.5,1.7,3.2-0.7,4.3C399.4,387.2,399.7,387.5,399.7,387.5z" fill="inherit"/><path d="M395.7,388.7c1.3-0.4,2.6-0.8,4-1.2c0,0-0.3-0.3-0.3-0.3c-0.9,1.4-2.2,1.7-3.7,1.2L395.7,388.7z" fill="inherit"/><path d="M395.7,388.4c-0.3,1.8-1.2,3-2.8,3.8l-0.2,0.5c1.7-0.8,2.5-2.3,3.2-4C395.7,388.7,395.7,388.4,395.7,388.4z" fill="inherit"/><path d="M392.8,392.2c0.1,0.3,0.2,0.6,0.2,0.9c0.6-0.7,0.5-0.8-0.5-0.4C392.6,392.7,392.8,392.2,392.8,392.2z" fill="inherit"/><path d="M391.6,406.7c-0.8,1.2-1.7,2.3-3.4,2l0.3,0.3c0.9-2.5,0.9-2.5,3.4-2C392,407.1,391.6,406.7,391.6,406.7z" fill="inherit"/><path d="M388.2,408.7c0,1.8-0.6,3-2.7,2.8l0.2,0.2c0-1.8,1-2.7,2.8-2.7L388.2,408.7z" fill="inherit"/><path d="M363.4,418.3c-2.2,0.1-4.4,0.2-6.6,0.3c0,0,0.1,0,0,0C359,418.5,361.2,418.4,363.4,418.3 C363.4,418.3,363.4,418.3,363.4,418.3z" fill="inherit"/><path d="M223,426.1c-3.1,1.6-3.1,1.6-4.2-1.2l-0.2,0.3c1.4,0.4,2.8,0.9,4.2,1.2C222.8,426.4,223,426.1,223,426.1z" fill="inherit"/><path d="M240.1,431.5c0.3-0.1,0.6-0.3,0.8-0.4c-0.8-0.5-1-0.3-0.3,0.6C240.7,431.7,240.1,431.5,240.1,431.5z" fill="inherit"/></g></svg>